Attempting to distance herself from a painful breakup with her married professor, Jisook (Yun-hong Oh) joins two of her girlfriends (Sunyoung Im and Hyunyoung Park) for a holiday in South KoreaΓÇÖs Kangwon Province. But in an eerie twist of fate, her former lover, Sangkwon (Jong-hak Baek), plans a getaway for the same destination, where tragedy brings them together once again.

_____________________________________________


General
Complete name                    : The Power of Kangwon Province.avi
Format                           : AVI
Format/Info                      : Audio Video Interleave
File size                        : 1.37 GiB
Duration                         : 1h 49mn
Overall bit rate                 : 1 793 Kbps
Writing application              : VirtualDubMod 1.5.4.1 (build 2178/release)
Writing library                  : VirtualDubMod build 2178/release

Video
ID                               : 0
Format                           : MPEG-4 Visual
Format profile                   : Advanced Simple@L5
Format settings, BVOP            : Yes
Format settings, QPel            : No
Format settings, GMC             : No warppoints
Format settings, Matrix          : Custom
Codec ID                         : XVID
Codec ID/Hint                    : XviD
Duration                         : 1h 49mn
Bit rate                         : 1 402 Kbps
Width                            : 720 pixels
Height                           : 400 pixels
Display aspect ratio             : 16:9
Frame rate                       : 23.976 fps
Color space                      : YUV
Chroma subsampling               : 4:2:0
Bit depth                        : 8 bits
Scan type                        : Progressive
Compression mode                 : Lossy
Bits/(Pixel*Frame)               : 0.203
Stream size                      : 1.07 GiB (78%)
Writing library                  : XviD 1.2.1 (UTC 2008-12-04)

Audio
ID                               : 1
Format                           : AC-3
Format/Info                      : Audio Coding 3
Mode extension                   : CM (complete main)
Codec ID                         : 2000
Duration                         : 1h 49mn
Bit rate mode                    : Constant
Bit rate                         : 384 Kbps
Channel(s)                       : 2 channels
Channel positions                : Front: L R
Sampling rate                    : 48.0 KHz
Bit depth                        : 16 bits
Compression mode                 : Lossy
Video delay                      : 801ms
Stream size                      : 300 MiB (21%)
Alignment                        : Split accross interleaves
Interleave, duration             : 96 ms (2.30 video frames)
Interleave, preload duration     : 96 ms
Language                         : Korean

